<svg xmlns="[http://www.w3.org/2000/svg](http://www.w3.org/2000/svg)" viewBox="0 0 660 400" width="660" height="400"><rect width="660" height="400" fill="#FAFAFA" rx="12"/><g transform="translate(30, 20)"><text x="300" y="20" fill="#1E293B" font-family="-apple-system, 'Segoe UI', sans-serif" font-size="16" font-weight="bold" text-anchor="middle">整库对话工作台架构与交互流程</text><rect width="160" height="320" x="0" y="40" fill="#FFFFFF" stroke="#2563EB" stroke-dasharray="4,4" stroke-width="1.5" rx="8"/><rect width="140" height="30" x="10" y="50" fill="#2563EB" rx="6"/><text x="80" y="70" fill="#FFFFFF" font-family="-apple-system, 'Segoe UI', sans-serif" font-size="13" font-weight="bold" text-anchor="middle">1. 部署与参数</text><rect width="140" height="65" x="10" y="95" fill="#EFF6FF" rx="6"/><text x="80" y="118" fill="#1E3A8A" font-family="-apple-system, 'Segoe UI', sans-serif" font-size="12" font-weight="bold" text-anchor="middle">Serving 框架</text><text x="80" y="138" fill="#3B82F6" font-family="-apple-system, 'Segoe UI', sans-serif" font-size="11" text-anchor="middle">vLLM / SGLang</text><text x="80" y="150" fill="#3B82F6" font-family="-apple-system, 'Segoe UI', sans-serif" font-size="10" text-anchor="middle">TP=4 | 1M Context</text><rect width="140" height="65" x="10" y="170" fill="#EFF6FF" rx="6"/><text x="80" y="193" fill="#1E3A8A" font-family="-apple-system, 'Segoe UI', sans-serif" font-size="12" font-weight="bold" text-anchor="middle">模型量化权重</text><text x="80" y="213" fill="#3B82F6" font-family="-apple-system, 'Segoe UI', sans-serif" font-size="11" text-anchor="middle">FP8 Weights</text><text x="80" y="225" fill="#3B82F6" font-family="-apple-system, 'Segoe UI', sans-serif" font-size="10" text-anchor="middle">+ FP4 KV Cache</text><rect width="140" height="80" x="10" y="260" fill="#EFF6FF" rx="6"/><text x="80" y="285" fill="#1E3A8A" font-family="-apple-system, 'Segoe UI', sans-serif" font-size="12" font-weight="bold" text-anchor="middle">硬件基础</text><text x="80" y="310" fill="#3B82F6" font-family="-apple-system, 'Segoe UI', sans-serif" font-size="11" text-anchor="middle">4 × A100 GPU</text><rect width="160" height="320" x="220" y="40" fill="#FFFFFF" stroke="#EA580C" stroke-dasharray="4,4" stroke-width="1.5" rx="8"/><rect width="140" height="30" x="230" y="50" fill="#EA580C" rx="6"/><text x="300" y="70" fill="#FFFFFF" font-family="-apple-system, 'Segoe UI', sans-serif" font-size="13" font-weight="bold" text-anchor="middle">2. 层次化打包</text><rect width="140" height="70" x="230" y="95" fill="#FFF7ED" rx="6"/><text x="300" y="120" fill="#9A3412" font-family="-apple-system, 'Segoe UI', sans-serif" font-size="12" font-weight="bold" text-anchor="middle">[目录索引]</text><text x="300" y="145" fill="#EA580C" font-family="-apple-system, 'Segoe UI', sans-serif" font-size="11" text-anchor="middle">模块结构树 + 摘要</text><rect width="140" height="70" x="230" y="175" fill="#FFF7ED" rx="6"/><text x="300" y="200" fill="#9A3412" font-family="-apple-system, 'Segoe UI', sans-serif" font-size="12" font-weight="bold" text-anchor="middle">[关键模块内容]</text><text x="300" y="225" fill="#EA580C" font-family="-apple-system, 'Segoe UI', sans-serif" font-size="11" text-anchor="middle">核心关联模块源码</text><rect width="140" height="70" x="230" y="255" fill="#FFF7ED" rx="6"/><text x="300" y="280" fill="#9A3412" font-family="-apple-system, 'Segoe UI', sans-serif" font-size="12" font-weight="bold" text-anchor="middle">[辅助模块内容]</text><text x="300" y="305" fill="#EA580C" font-family="-apple-system, 'Segoe UI', sans-serif" font-size="11" text-anchor="middle">低优先级代码片段</text><rect width="160" height="320" x="440" y="40" fill="#FFFFFF" stroke="#16A34A" stroke-dasharray="4,4" stroke-width="1.5" rx="8"/><rect width="140" height="30" x="450" y="50" fill="#16A34A" rx="6"/><text x="520" y="70" fill="#FFFFFF" font-family="-apple-system, 'Segoe UI', sans-serif" font-size="13" font-weight="bold" text-anchor="middle">3. API &amp; KV 复用</text><rect width="140" height="110" x="450" y="95" fill="#F0FDF4" rx="6"/><text x="520" y="120" fill="#166534" font-family="-apple-system, 'Segoe UI', sans-serif" font-size="12" font-weight="bold" text-anchor="middle">/session/init</text><text x="520" y="145" fill="#16A34A" font-family="-apple-system, 'Segoe UI', sans-serif" font-size="11" text-anchor="middle">一次性 Prefill 长 Prompt</text><text x="520" y="170" fill="#9333EA" font-family="-apple-system, 'Segoe UI', sans-serif" font-size="11" font-weight="bold" text-anchor="middle">固化 KV Cache 💾</text><rect width="140" height="110" x="450" y="225" fill="#F0FDF4" rx="6"/><text x="520" y="250" fill="#166534" font-family="-apple-system, 'Segoe UI', sans-serif" font-size="12" font-weight="bold" text-anchor="middle">/session/ask</text><text x="520" y="275" fill="#16A34A" font-family="-apple-system, 'Segoe UI', sans-serif" font-size="11" text-anchor="middle">仅追加 New Question</text><text x="520" y="300" fill="#16A34A" font-family="-apple-system, 'Segoe UI', sans-serif" font-size="11" text-anchor="middle">快速 Decode 响应</text><path d="M 160 200 L 220 200" stroke="#94A3B8" stroke-dasharray="4,4" stroke-width="2"/><polygon points="215,195 225,200 215,205" fill="#94A3B8"/><path d="M 380 200 L 440 200" stroke="#94A3B8" stroke-dasharray="4,4" stroke-width="2"/><polygon points="435,195 445,200 435,205" fill="#94A3B8"/></g></svg>